HIERARCHY
ROOT Hips
{
	OFFSET	0.00	0.00	0.00
	CHANNELS 6 Xposition Yposition Zposition Zrotation Xrotation Yrotation
	JOINT LeftUpLeg
	{
		OFFSET	 0.126116	-0.014019	-0.065224
		CHANNELS 3 Zrotation Xrotation Yrotation
		JOINT LeftLeg
		{
			OFFSET	 0.000000	 0.000000	 0.569914
			CHANNELS 3 Zrotation Xrotation Yrotation
			JOINT LeftFoot
			{
				OFFSET	 0.000000	 0.000000	 0.544423
				CHANNELS 3 Zrotation Xrotation Yrotation
				JOINT LeftToeBase
				{
					OFFSET	 0.000000	 0.000000	 0.207117
					CHANNELS 3 Zrotation Xrotation Yrotation
					End Site
					{
						OFFSET	 0.000000	 0.000000	 0.207117
					}
				}
			}
		}
	}
	JOINT RightUpLeg
	{
		OFFSET	-0.124023	-0.008373	-0.065224
		CHANNELS 3 Zrotation Xrotation Yrotation
		JOINT RightLeg
		{
			OFFSET	 0.000000	 0.000000	 0.570047
			CHANNELS 3 Zrotation Xrotation Yrotation
			JOINT RightFoot
			{
				OFFSET	 0.000000	 0.000000	 0.544354
				CHANNELS 3 Zrotation Xrotation Yrotation
				JOINT RightToeBase
				{
					OFFSET	 0.000000	 0.000000	 0.207540
					CHANNELS 3 Zrotation Xrotation Yrotation
					End Site
					{
						OFFSET	 0.000000	 0.000000	 0.207540
					}
				}
			}
		}
	}
	JOINT Spine
	{
		OFFSET	 0.000184	-0.007763	 0.117403
		CHANNELS 3 Zrotation Xrotation Yrotation
		JOINT Spine1
		{
			OFFSET	 0.000000	 0.000000	 0.137269
			CHANNELS 3 Zrotation Xrotation Yrotation
			JOINT Spine2
			{
				OFFSET	 0.000000	 0.000000	 0.156879
				CHANNELS 3 Zrotation Xrotation Yrotation
				JOINT LeftShoulder
				{
					OFFSET	 0.080501	-0.002496	 0.160144
					CHANNELS 3 Zrotation Xrotation Yrotation
					JOINT LeftArm
					{
						OFFSET	 0.000000	 0.000000	 0.164363
						CHANNELS 3 Zrotation Xrotation Yrotation
						JOINT LeftForeArm
						{
							OFFSET	 0.000000	 0.000000	 0.364576
							CHANNELS 3 Zrotation Xrotation Yrotation
							JOINT LeftHand
							{
								OFFSET	 0.000000	 0.000000	 0.360812
								CHANNELS 3 Zrotation Xrotation Yrotation
								JOINT LeftHandIndex1
								{
									OFFSET	 0.000000	 0.000000	 0.086006
									CHANNELS 3 Zrotation Xrotation Yrotation
									JOINT LeftHandIndex2
									{
										OFFSET	 0.000000	 0.000000	 0.047236
										CHANNELS 3 Zrotation Xrotation Yrotation
										JOINT LeftHandIndex3
										{
											OFFSET	-0.004284	-0.000551	 0.038166
											CHANNELS 3 Zrotation Xrotation Yrotation
											End Site
											{
												OFFSET	-0.004284	-0.000551	 0.038166
											}
										}
									}
								}
							}
						}
					}
				}
				JOINT Neck
				{
					OFFSET	 0.000000	 0.000000	 0.176489
					CHANNELS 3 Zrotation Xrotation Yrotation
					JOINT Head
					{
						OFFSET	 0.000000	-0.001747	 0.077940
						CHANNELS 3 Zrotation Xrotation Yrotation
						End Site
						{
							OFFSET	 0.000000	-0.001747	 0.077940
						}
					}
				}
				JOINT RightShoulder
				{
					OFFSET	-0.080363	 0.000306	 0.159706
					CHANNELS 3 Zrotation Xrotation Yrotation
					JOINT RightArm
					{
						OFFSET	 0.000000	 0.000000	 0.164196
						CHANNELS 3 Zrotation Xrotation Yrotation
						JOINT RightForeArm
						{
							OFFSET	 0.000000	 0.000000	 0.365611
							CHANNELS 3 Zrotation Xrotation Yrotation
							JOINT RightHand
							{
								OFFSET	 0.000000	 0.000000	 0.360648
								CHANNELS 3 Zrotation Xrotation Yrotation
								JOINT RightHandIndex1
								{
									OFFSET	 0.000000	 0.000000	 0.069977
									CHANNELS 3 Zrotation Xrotation Yrotation
									JOINT RightHandIndex2
									{
										OFFSET	 0.000000	 0.000000	 0.052305
										CHANNELS 3 Zrotation Xrotation Yrotation
										JOINT RightHandIndex3
										{
											OFFSET	 0.009002	-0.000782	 0.042196
											CHANNELS 3 Zrotation Xrotation Yrotation
											End Site
											{
												OFFSET	 0.009002	-0.000782	 0.042196
											}
										}
									}
								}
							}
						}
					}
				}
			}
		}
	}
}
MOTION
Frames:    10
Frame Time: 0.03333334
 0.011800	 0.062229	 1.200085	 4.738566	-1.549483	-3.680153	 0.845501	-12.433070	-171.201800	 0.730333	-39.141570	 0.238373	 50.750720	 80.788960	-54.522540	-2.370221	 31.476060	-0.066787	-4.652262	-29.813180	-174.695600	 11.008580	-53.336710	 9.485937	 18.538290	 76.279300	-14.580870	 2.358496	 33.070060	 0.104852	 2.039407	 8.855894	 0.757317	 1.995316	 3.000448	 3.495119	-9.490767	-2.461344	-4.386955	-93.887310	 58.914270	 175.503400	 22.710700	 42.569810	-29.410990	-1.085858	-1.252135	-11.269120	 1.166124	-4.048974	-6.888470	-4.870428	 19.228860	-2.788526	-3.881582	 21.472130	 2.202805	-4.806934	 5.561113	 0.146053	-0.091810	-5.056157	 0.176036	-11.448300	 1.686778	 2.040175	 89.796140	 61.626580	-179.966500	-19.316810	 50.903680	 8.430698	-1.342075	-2.993508	 15.460200	-4.995698	 10.487160	 0.645257	 6.296521	 25.172380	-0.552254	 1.842257	 45.047930	-6.954529	 0.480500	 24.476610	 3.591532
 0.011746	 0.061297	 1.199772	 4.828286	-1.506269	-3.676856	 0.761994	-12.484490	-171.205800	 0.792948	-39.226480	 0.278399	 50.994820	 80.836230	-54.817340	-2.370068	 31.502060	-0.067374	-4.843526	-29.983070	-174.701400	 11.103230	-53.297460	 9.558230	 20.003890	 76.971760	-16.169130	 2.358588	 33.056690	 0.104537	 1.974513	 8.842119	 0.743630	 1.998945	 2.936352	 3.508508	-9.500429	-2.425083	-4.381387	-93.903930	 58.923850	 175.466900	 22.760220	 42.494790	-29.367110	-1.173269	-1.265123	-11.540590	 1.209049	-4.072691	-7.033951	-4.870357	 19.232300	-2.789088	-3.880857	 21.481420	 2.202067	-4.806769	 5.563087	 0.145944	-0.086845	-5.062068	 0.178572	-11.443420	 1.698834	 2.021386	 89.790950	 61.633060	-179.978900	-19.268630	 50.939670	 8.336555	-1.370847	-3.009084	 15.495970	-4.991869	 10.540280	 0.625368	 6.295415	 25.054420	-0.548661	 1.858330	 44.919280	-6.968885	 0.498957	 24.395890	 3.582137
 0.011378	 0.054082	 1.197682	 5.372011	-1.142281	-3.671883	 0.254384	-12.823800	-171.227200	 1.110848	-39.752780	 0.484828	 52.629860	 81.115330	-56.713270	-2.369140	 31.658540	-0.070910	-6.113958	-31.273570	-174.753000	 11.816850	-52.852120	 10.081840	 33.524420	 80.844640	-30.543200	 2.358941	 33.004200	 0.103325	 1.602463	 8.669184	 0.649409	 2.011314	 2.553243	 3.624047	-9.558615	-2.212303	-4.364171	-94.019830	 58.966370	 175.214400	 22.941920	 41.952330	-29.034570	-1.577768	-1.376426	-13.379440	 1.563836	-4.270650	-7.738809	-4.868057	 19.296770	-2.794477	-3.875032	 21.555730	 2.196159	-4.805450	 5.578665	 0.145025	-0.057674	-5.091322	 0.204517	-11.418160	 1.779618	 1.927876	 89.750180	 61.696540	 179.923800	-18.954470	 51.206920	 7.675829	-1.655506	-3.136964	 15.714680	-5.034956	 10.886630	 0.471320	 6.285931	 24.236060	-0.542039	 1.962229	 44.072810	-7.061388	 0.651760	 23.723010	 3.505164
 0.011010	 0.045858	 1.195748	 5.812180	-0.738006	-3.685687	-0.167705	-13.081390	-171.247800	 1.300854	-40.172210	 0.611663	 54.254900	 81.355440	-58.495860	-2.368381	 31.783770	-0.073756	-7.264418	-32.615670	-174.837600	 12.450620	-52.144750	 10.498660	 56.365470	 83.106870	-54.237010	 2.359028	 32.992490	 0.103044	 1.318305	 8.432570	 0.561370	 2.006462	 2.259667	 3.751364	-9.601923	-2.052894	-4.366544	-94.129930	 58.984260	 174.977300	 22.918770	 41.372310	-28.753530	-1.767347	-1.499801	-15.004990	 1.948261	-4.487830	-8.119154	-4.864184	 19.395810	-2.800977	-3.868809	 21.635140	 2.189833	-4.804050	 5.595160	 0.144058	-0.035025	-5.107833	 0.236929	-11.399020	 1.853531	 1.874291	 89.707510	 61.773900	 179.821200	-18.677860	 51.482130	 7.020271	-2.005560	-3.275639	 15.881460	-5.139514	 11.193230	 0.310382	 6.275053	 23.463230	-0.552878	 2.052195	 43.316760	-7.141116	 0.818139	 22.981150	 3.423044
 0.010646	 0.033828	 1.193459	 6.189895	-0.279416	-3.797194	-0.522661	-13.130050	-171.196400	 1.475470	-40.494230	 0.729142	 56.854860	 81.682160	-61.239530	-2.367219	 31.972810	-0.078057	-8.098355	-34.235610	-174.819900	 12.965190	-50.923790	 10.734490	 83.872730	 83.136990	-82.783600	 2.359776	 32.881100	 0.100461	 1.066038	 8.129378	 0.561168	 1.995323	 2.067111	 3.869859	-9.628066	-1.914014	-4.365701	-94.246280	 58.991780	 174.728200	 22.695530	 40.532460	-28.616130	-2.130382	-1.570892	-16.720960	 2.146603	-4.819904	-8.178203	-4.857209	 19.560750	-2.809096	-3.860176	 21.745030	 2.181058	-4.800373	 5.638441	 0.141525	-0.016850	-5.137393	 0.273564	-11.375940	 1.936791	 1.844974	 89.644620	 61.861640	 179.669700	-18.339550	 51.808930	 6.249490	-2.555635	-3.457370	 15.961420	-5.336053	 11.575190	-0.059907	 6.259730	 22.486710	-0.577747	 2.150949	 42.461100	-7.228218	 1.034424	 22.002550	 3.318960
 0.010421	 0.021434	 1.191407	 6.395875	 0.099276	-3.973154	-0.707454	-12.953570	-171.084500	 1.582171	-40.628350	 0.800629	 59.823960	 81.984310	-64.305830	-2.365977	 32.171080	-0.082578	-8.360120	-35.619490	-174.677400	 13.237820	-49.474700	 10.728050	 93.246670	 82.200570	-93.015740	 2.360960	 32.703020	 0.096345	 0.919230	 7.848752	 0.649729	 1.982131	 2.027927	 3.939286	-9.629925	-1.835011	-4.358964	-94.335750	 58.986870	 174.538200	 22.336500	 39.677930	-28.689520	-2.561404	-1.555567	-17.974560	 2.115654	-5.172834	-7.900517	-4.849126	 19.743800	-2.816530	-3.851604	 21.853730	 2.172353	-4.795501	 5.695826	 0.138158	-0.008215	-5.171433	 0.303924	-11.355730	 2.005465	 1.847756	 89.579870	 61.934710	 179.512800	-18.033710	 52.088050	 5.575312	-3.148246	-3.631341	 15.945720	-5.563642	 11.922630	-0.532167	 6.244087	 21.587030	-0.609311	 2.230611	 41.750580	-7.298151	 1.237645	 21.068600	 3.224008
 0.010055	 0.004036	 1.188784	 6.550929	 0.423276	-4.171046	-0.897962	-12.398900	-170.987300	 1.679476	-40.675660	 0.864836	 63.355450	 82.320080	-67.916180	-2.363180	 32.607660	-0.092596	-8.141139	-37.010340	-174.428300	 13.002550	-47.216580	 10.207450	 107.596400	 80.315700	-108.121900	 2.358772	 33.030280	 0.103923	 0.732537	 7.559548	 0.773986	 1.960218	 2.167445	 3.947304	-9.596194	-1.793998	-4.315558	-94.413890	 58.976980	 174.373300	 21.599830	 38.572300	-28.991940	-3.000489	-1.507386	-19.100920	 1.973381	-5.410142	-7.582818	-4.838381	 19.968660	-2.821323	-3.839655	 22.004810	 2.160212	-4.785620	 5.811950	 0.131330	 0.005315	-5.219254	 0.328063	-11.298910	 2.079043	 1.835595	 89.511760	 61.998950	 179.347100	-17.576020	 52.411700	 4.702926	-3.912956	-3.821289	 15.787180	-5.773143	 12.247310	-1.247890	 6.222634	 20.419650	-0.653884	 2.361776	 40.539600	-7.412604	 1.490410	 19.887580	 3.109851
 0.009608	-0.014407	 1.186115	 6.620975	 0.621158	-4.344108	-1.055305	-11.585370	-170.927800	 1.746147	-40.605980	 0.907022	 66.623550	 82.610580	-71.228610	-2.359372	 33.177180	-0.105772	-7.370064	-37.995370	-174.024600	 12.432040	-44.570480	 9.339982	 119.669200	 77.617620	-120.597700	 2.353544	 33.774830	 0.121344	 0.547382	 7.327096	 0.904789	 1.933096	 2.444026	 3.893010	-9.533396	-1.797570	-4.245170	-94.463280	 58.964390	 174.270000	 20.671670	 37.480000	-29.517150	-3.347796	-1.434482	-19.712720	 1.758351	-5.486127	-7.298704	-4.827473	 20.183280	-2.822505	-3.827090	 22.162920	 2.147457	-4.773097	 5.958898	 0.122661	 0.020566	-5.269666	 0.340667	-11.217530	 2.140338	 1.812225	 89.455630	 62.040110	 179.210400	-17.066680	 52.691890	 3.866378	-4.680994	-3.962334	 15.456040	-5.913298	 12.477200	-2.038687	 6.200030	 19.256120	-0.701007	 2.509042	 39.115880	-7.540024	 1.733171	 18.733430	 3.004439
 0.008915	-0.035114	 1.183095	 6.746930	 0.707960	-4.486067	-1.310298	-10.503810	-170.926600	 1.856701	-40.451840	 0.975930	 68.329610	 82.813570	-72.989180	-2.352007	 34.206760	-0.129943	-6.837053	-38.680130	-173.680000	 12.089780	-41.311780	 8.562256	 118.872300	 76.399950	-120.286900	 2.346422	 34.723600	 0.143874	 0.240734	 7.299998	 0.999039	 1.891002	 2.565200	 3.873812	-9.442197	-1.787663	-4.191107	-94.502990	 58.940280	 174.189400	 19.515520	 36.407480	-30.211490	-3.486584	-1.394313	-19.841760	 1.581362	-5.820161	-7.288829	-4.829616	 20.340730	-2.881276	-3.812462	 22.346310	 2.132595	-4.755455	 6.165521	 0.110408	 0.050798	-5.322281	 0.348752	-11.091730	 2.239267	 1.725611	 89.409650	 62.030900	 179.099500	-16.456930	 52.918720	 2.869941	-5.411057	-4.054303	 15.019990	-5.923302	 12.499030	-2.807321	 6.181944	 18.041220	-0.713003	 2.660772	 37.573960	-7.669993	 1.982772	 17.526960	 2.900503
 0.008000	-0.057231	 1.179645	 6.908329	 0.722769	-4.607874	-1.626061	-9.248802	-170.964500	 1.993595	-40.238790	 1.060133	 68.876100	 82.979790	-73.591470	-2.341614	 35.532860	-0.161755	-6.521623	-39.120220	-173.404600	 11.975800	-37.713230	 7.870304	 112.608200	 76.133590	-114.592000	 2.337648	 35.804070	 0.170045	-0.148736	 7.404048	 1.071670	 1.837292	 2.569453	 3.876266	-9.327234	-1.764059	-4.144911	-94.536450	 58.908660	 174.123400	 18.266820	 35.396910	-31.033930	-3.490675	-1.373079	-19.582230	 1.429670	-6.323873	-7.456064	-4.840016	 20.461380	-2.977204	-3.796450	 22.546020	 2.116333	-4.734454	 6.410600	 0.095786	 0.090678	-5.376310	 0.353935	-10.932140	 2.361134	 1.599300	 89.370070	 61.989300	 179.005400	-15.772510	 53.087890	 1.810596	-6.129143	-4.097395	 14.467150	-5.843258	 12.389360	-3.560897	 6.167412	 16.793090	-0.702693	 2.812108	 35.955630	-7.798176	 2.235281	 16.286480	 2.800072
